<svg id="Layer_1" data-name="Layer 1" xmlns="http://www.w3.org/2000/svg" viewBox="0 0 312.09 500"><defs><style>.cls-1{fill:none;stroke:#506072;stroke-miterlimit:10;stroke-width:5px;}</style></defs><title>Logogordinha</title><path class="cls-1" d="M227.72,176.54c28.93-19.76,69-18.25,69-18.25,14.29.54,47.2,1.56,73.64,27,18.85,18.17,30.5,45.62,30.5,82.7H373.2c0-56.47-34.86-83.29-77.7-83.29-27.07,0-47.07,9.64-53.87,14.68" transform="translate(-93.95)"/><path class="cls-1" d="M224.49,219.39c-6.07,12.15-6,24.31-6,27.82,0,0-.79,15.67,7.22,29.3,34.13,58.14,177.81,20.9,177.81,128.88,0,60.88-47.36,92.11-108.54,92.11-60.47,0-108.94-38.44-108.94-115.29h26.77c0,60.88,36.44,89.31,81.69,89.31s80.89-21.23,80.89-65.68C376.64,310.13,192,373.39,192,247.31l.17-.1c0-20.16,5.26-37,14.57-50.3,1.15-1.64,2.38-3.22,2.38-3.22" transform="translate(-93.95)"/><path class="cls-1" d="M301.9,184.73a104.68,104.68,0,0,0-11.61.41v94.11L121.28,2.5H96.45v328h27.63V54.63l154.6,253.5c5.21,1.61,11.61,3.21,17.21,4.82,8,2.06,16.47,4.4,22,5.6V187.2a115.55,115.55,0,0,0-16-2.41Zm0-26.77c5.6.39,12,1.19,16,1.61V4.91H290.29v153Z" transform="translate(-93.95)"/></svg>