<?xml version="1.0" encoding="utf-8"?>
<!-- Generator: Adobe Illustrator 24.0.1, SVG Export Plug-In . SVG Version: 6.00 Build 0)  -->
<svg version="1.1" id="Layer_1" xmlns="http://www.w3.org/2000/svg" xmlns:xlink="http://www.w3.org/1999/xlink" x="0px" y="0px"
	 viewBox="0 0 500 500" style="enable-background:new 0 0 500 500;" xml:space="preserve">
<style type="text/css">
	.st0{fill:#505F71;}
</style>
<path class="st0" d="M344.72,250.01l142.19-142.19c17.45-17.45,17.45-45.74,0-63.2l-31.6-31.6c-17.45-17.45-45.74-17.45-63.2,0
	L249.92,155.21L107.73,13.02C90.29-4.43,62-4.43,44.53,13.02l-31.6,31.6c-17.45,17.45-17.45,45.74,0,63.2l142.19,142.19L12.93,392.2
	c-17.45,17.45-17.45,45.74,0,63.2l31.6,31.6c17.45,17.45,45.75,17.45,63.2,0l142.19-142.19L392.11,487
	c17.45,17.45,45.75,17.45,63.2,0l31.6-31.6c17.45-17.45,17.45-45.74,0-63.2L344.72,250.01z"/>
</svg>
