<?xml version="1.0" encoding="utf-8"?>
<!-- Generator: Adobe Illustrator 21.0.0, SVG Export Plug-In . SVG Version: 6.00 Build 0)  -->
<svg version="1.1" id="Camada_1" xmlns="http://www.w3.org/2000/svg" xmlns:xlink="http://www.w3.org/1999/xlink" x="0px" y="0px"
	 viewBox="0 0 500 500" style="enable-background:new 0 0 500 500;" xml:space="preserve">
<style type="text/css">
	.st0{fill:#505F71;}
	.st1{fill:#C1C9DC;}
	.st2{fill:#FEFEFE;}
</style>
<g>
	<path class="st0" d="M265.9,283c-11.4,0-22.8,0-34.2,0c-0.5,0-0.9,0-1.4,0c0-0.4-0.2-0.6-0.6-0.7c-1-0.2-2-0.4-2.9-0.8
		c-2.1-0.9-4-2.1-5.6-3.7c-1.4-1.4-2.6-2.9-3.4-4.7c-1.1-2.2-1.8-4.4-1.8-6.9c0-10.5,0-21,0-31.4c0-1.6,0.3-3.1,0.8-4.6
		c0.8-2.7,2.3-5,4.3-7c1.5-1.6,3.3-2.9,5.3-3.7c2.2-0.9,4.4-1.5,6.9-1.5c9.8,0,19.6,0,29.4,0c1.7,0,3.5,0.2,5.1,0.6
		c2.3,0.6,4.4,1.7,6.3,3.1c1.7,1.3,3.1,2.8,4.2,4.7c0.3,0.6,0.6,1.2,0.9,1.8c1.1,1.9,1.7,4,1.7,6.2c0,10.7,0,21.4,0,32
		c0,0.3,0,0.6-0.1,0.9c-0.3,1.8-0.7,3.6-1.6,5.2c-0.5,0.9-1,1.9-1.6,2.7c-1.1,1.5-2.4,2.9-4,4.1c-2,1.4-4,2.5-6.4,2.9
		C266.8,282.2,266,282.1,265.9,283z M248.3,222.5C248.3,222.5,248.3,222.5,248.3,222.5c-5.1,0-10.2,0-15.3,0c-0.3,0-0.6,0-0.9,0
		c-2.3,0.5-4.5,1.2-6.4,2.7c-1.7,1.3-3.1,3-4,4.9c-1,1.9-1.3,4-1.3,6.2c0.1,10-0.1,19.9,0.1,29.9c0,0.9,0.2,1.7,0.5,2.5
		c0.6,1.6,1.3,3.1,2.4,4.5c1.4,1.7,3,3,5,3.9c1.9,0.8,3.8,1.2,5.9,1.2c9.4,0,18.9,0,28.3,0c0.7,0,1.3,0,2-0.1
		c1.9-0.3,3.8-0.8,5.4-1.9c0.5-0.3,1.1-0.6,1.6-1c0.6-0.5,1-1.1,1.5-1.7c1-1.1,1.7-2.4,2.3-3.8c0.6-1.5,1-3.1,1-4.7
		c0-9.9,0-19.7,0-29.6c0-1.9-0.5-3.8-1.3-5.5c-0.7-1.4-1.6-2.6-2.7-3.7c-1.1-1.1-2.3-2.1-3.7-2.7c-1.7-0.8-3.6-1.3-5.6-1.2
		C258.2,222.5,253.3,222.5,248.3,222.5z"/>
	<path class="st1" d="M265.9,283c0.1-0.9,0.9-0.8,1.4-0.9c2.4-0.4,4.5-1.5,6.4-2.9c1.6-1.1,2.9-2.5,4-4.1c0.6-0.8,1.1-1.8,1.6-2.7
		c0.9-1.7,1.3-3.4,1.6-5.2c0-0.3,0.1-0.6,0.1-0.9c0-10.7,0-21.4,0-32c0-2.2-0.6-4.3-1.7-6.2c-0.3-0.6-0.6-1.2-0.9-1.8
		c-1.1-1.8-2.5-3.4-4.2-4.7c-1.9-1.5-4-2.5-6.3-3.1c-1.7-0.4-3.4-0.6-5.1-0.6c-9.8,0-19.6,0-29.4,0c-2.4,0-4.7,0.6-6.9,1.5
		c-2,0.8-3.8,2.1-5.3,3.7c-2,2-3.4,4.3-4.3,7c-0.5,1.5-0.8,3-0.8,4.6c0,10.5,0,21,0,31.4c0,2.5,0.7,4.7,1.8,6.9
		c0.9,1.8,2,3.3,3.4,4.7c1.6,1.6,3.6,2.8,5.6,3.7c0.9,0.4,1.9,0.6,2.9,0.8c0.4,0.1,0.6,0.2,0.6,0.7c-0.7,0-1.5,0-2.2,0
		c-0.1,0-0.2,0-0.2-0.1c-0.2-0.6-0.8-0.5-1.3-0.6c-0.2,0-0.3-0.2-0.5-0.3c-0.2-0.1-0.3-0.3-0.5-0.4c-1.5-0.3-2.6-1.4-3.7-2.4
		c-1.3-1.1-2.5-2.4-3.5-3.8c-0.5-0.8-0.7-1.7-1.5-2.3c-0.1-0.1-0.2-0.4-0.2-0.5c-0.2-0.6-0.2-1.2-0.7-1.6c-0.1-0.1-0.2-0.3-0.2-0.4
		c-0.1-1-0.3-2-0.4-3c-0.1-1.1-0.1-2.3-0.1-3.4c0-9.4,0-18.8,0-28.2c0-1.9,0.3-3.9,0.5-5.8c0-0.2,0.1-0.3,0.2-0.4
		c0.1-0.1,0.3-0.3,0.3-0.4c0.2-1.1,0.9-2,1.4-3c0.3-0.6,0.8-1.1,1.2-1.6c0.9-1.1,1.8-2.2,2.9-3.1c0.6-0.5,1.1-1.1,1.9-1.3
		c0.2-0.1,0.4-0.3,0.6-0.4c0.9-0.5,1.6-1.1,2.6-1.4c0.3-0.1,0.7-0.1,1-0.3c1.3-1,2.9-0.9,4.4-0.9c10.9-0.1,21.8,0,32.8,0
		c1.1,0,2.1,0.2,3.2,0.3c0.7,0.1,1.1,0.8,1.8,0.8c0.6,0,1.1,0.5,1.7,0.7c0.9,0.3,1.5,1,2.3,1.3c0.6,0.3,1.1,0.9,1.7,1.3
		c0.7,0.5,1.3,1.1,1.8,1.8c0.5,0.7,1.1,1.3,1.5,2.1c0.5,0.8,0.7,1.6,1.4,2.3c0.1,0.1,0.2,0.2,0.2,0.2c0,1.4,1.1,2.5,1.2,4
		c0.8,11,0.2,22,0.3,33c0,1.7-0.3,3.3-0.5,5c0,0.2-0.1,0.3-0.2,0.4c-0.4,0.4-0.6,0.9-0.7,1.4c-0.1,0.9-0.8,1.6-1.2,2.3
		c-0.5,0.9-0.9,1.9-1.8,2.6c-0.6,0.6-1.1,1.3-1.8,1.8c-0.4,0.3-0.8,0.7-1.1,1c-0.6,0.6-1.5,0.9-2.1,1.6c-0.1,0.1-0.3,0.2-0.5,0.2
		c-0.6,0.1-1.1,0.2-1.5,0.8c-0.1,0.2-0.3,0.1-0.5,0.2c-0.4,0.2-0.9-0.1-1.1,0.6c0,0-0.2,0.1-0.3,0.1C267.8,283,266.8,283,265.9,283z
		"/>
	<path class="st1" d="M248.3,222.5c4.9,0,9.9,0,14.8,0c2,0,3.9,0.4,5.6,1.2c1.4,0.6,2.6,1.6,3.7,2.7c1.1,1.1,2.1,2.3,2.7,3.7
		c0.8,1.7,1.3,3.5,1.3,5.5c0,9.9,0,19.7,0,29.6c0,1.6-0.3,3.2-1,4.7c-0.6,1.4-1.4,2.6-2.3,3.8c-0.5,0.6-1,1.2-1.5,1.7
		c-0.5,0.4-1.1,0.6-1.6,1c-1.7,1.1-3.5,1.6-5.4,1.9c-0.7,0.1-1.3,0.1-2,0.1c-9.4,0-18.9,0-28.3,0c-2,0-4-0.4-5.9-1.2
		c-2-0.8-3.6-2.2-5-3.9c-1.1-1.3-1.9-2.9-2.4-4.5c-0.3-0.8-0.5-1.7-0.5-2.5c-0.2-10,0-19.9-0.1-29.9c0-2.2,0.3-4.3,1.3-6.2
		c1-1.9,2.3-3.6,4-4.9c1.9-1.5,4.1-2.2,6.4-2.7c0.3-0.1,0.6,0,0.9,0C238.1,222.5,243.2,222.5,248.3,222.5
		C248.3,222.5,248.3,222.5,248.3,222.5z M221.3,250.4c0,5.1,0,10.1,0,15.2c0,0.4-0.1,0.8,0.1,1.1c0.8,1.3,0.6,2.9,1.5,4.3
		c0.6,0.8,1.1,1.7,1.7,2.5c1.1,1.1,2.2,2.2,3.8,2.6c0.1,0,0.3,0.1,0.4,0.2c0.5,0.5,1.1,0.6,1.7,0.6c0.4,0,0.7,0,1.1,0.1
		c1.1,0.2,2.2,0.4,3.3,0.3c8.9-0.1,17.7,0,26.6,0c0.5,0,1,0.2,1.6,0.1c1.1-0.3,2.2-0.5,3.4-0.5c0.4,0,0.9-0.2,1.2-0.5
		c0.2-0.2,0.3-0.3,0.5-0.4c0.7-0.1,1.3-0.5,1.9-0.9c1-0.7,1.8-1.5,2.5-2.4c0.3-0.4,0.9-0.7,1-1.3c0.1-0.5,0.3-0.9,0.6-1.2
		c0.2-0.3,0.3-0.6,0.4-0.9c0.1-0.7,0-1.4,0.4-2c0.3-0.6,0.4-1.3,0.4-2c0-9,0-17.9,0-26.9c0-1.9,0.1-3.7-0.6-5.6
		c-0.4-0.9-0.2-2-1-2.8c0,0,0,0,0-0.1c-0.1-1-0.9-1.6-1.4-2.2c-0.7-0.9-1.6-1.6-2.5-2.3c-0.3-0.2-0.5-0.4-0.9-0.4
		c-0.3,0-0.6-0.1-0.8-0.4c-0.5-0.5-1.1-0.6-1.7-0.6c-0.8,0-1.5-0.2-2.2-0.4c-1.2-0.3-2.5-0.2-3.7-0.2c-8.4,0.1-16.8,0-25.1,0
		c-0.2,0-0.4,0-0.5,0c-1.1-0.2-2.2-0.1-3.3,0.4c-0.3,0.1-0.7,0.2-1,0.2c-1.4-0.2-2.5,0.8-3.6,1.3c-1,0.5-1.9,1.3-2.6,2.2
		c-1,1.2-2,2.5-2.4,4.1c-0.1,0.5-0.1,1-0.3,1.5c-0.4,0.7-0.5,1.5-0.5,2.2C221.3,240.3,221.3,245.3,221.3,250.4z"/>
	<path class="st2" d="M221.3,250.4c0-5,0-10.1,0-15.1c0-0.8,0.1-1.5,0.5-2.2c0.2-0.4,0.2-1,0.3-1.5c0.4-1.6,1.4-2.8,2.4-4.1
		c0.7-0.9,1.6-1.8,2.6-2.2c1.1-0.6,2.2-1.5,3.6-1.3c0.4,0,0.7,0,1-0.2c1.1-0.5,2.2-0.6,3.3-0.4c0.2,0,0.4,0,0.5,0
		c8.4,0,16.8,0,25.1,0c1.2,0,2.5-0.2,3.7,0.2c0.7,0.2,1.4,0.4,2.2,0.4c0.6,0,1.2,0.2,1.7,0.6c0.2,0.2,0.5,0.4,0.8,0.4
		c0.4,0,0.6,0.3,0.9,0.4c0.9,0.7,1.8,1.4,2.5,2.3c0.6,0.7,1.3,1.3,1.4,2.2c0,0,0,0,0,0.1c0.8,0.8,0.6,1.9,1,2.8
		c0.7,1.9,0.6,3.7,0.6,5.6c0,9,0,17.9,0,26.9c0,0.7-0.1,1.4-0.4,2c-0.3,0.6-0.2,1.3-0.4,2c-0.1,0.3-0.1,0.6-0.4,0.9
		c-0.3,0.4-0.5,0.7-0.6,1.2c-0.1,0.5-0.7,0.8-1,1.3c-0.7,0.9-1.5,1.7-2.5,2.4c-0.6,0.4-1.2,0.8-1.9,0.9c-0.2,0-0.4,0.2-0.5,0.4
		c-0.3,0.3-0.8,0.5-1.2,0.5c-1.2-0.1-2.3,0.2-3.4,0.5c-0.6,0.1-1.1-0.1-1.6-0.1c-8.9,0-17.7,0-26.6,0c-1.1,0-2.2-0.2-3.3-0.3
		c-0.4-0.1-0.8-0.1-1.1-0.1c-0.6,0-1.2-0.1-1.7-0.6c-0.1-0.1-0.2-0.2-0.4-0.2c-1.6-0.3-2.8-1.4-3.8-2.6c-0.7-0.7-1.2-1.6-1.7-2.5
		c-0.9-1.3-0.7-3-1.5-4.3c-0.2-0.3-0.1-0.7-0.1-1.1C221.3,260.5,221.3,255.5,221.3,250.4z M248.5,232.1c-0.5,0-1,0-1.5,0
		c-0.5,0-1.1,0-1.5,0.3c-0.4,0.3-0.9,0.4-1.4,0.5c-0.6,0.2-1.3-0.1-1.7,0.3c-0.5,0.5-1.1,0.7-1.8,0.8c-0.3,0-0.5,0.2-0.7,0.4
		c-0.2,0.3-0.5,0.4-0.8,0.5c-0.4,0.1-0.6,0.3-0.9,0.6c-0.5,0.5-1.1,1-1.7,1.4c-0.6,0.4-1,0.9-1.5,1.3c-0.7,0.6-1.2,1.4-1.7,2.1
		c-0.5,0.7-0.9,1.4-1.2,2.1c-0.3,0.6-0.3,1.2-0.9,1.6c-0.1,0.1-0.1,0.3-0.1,0.4c-0.1,1-0.1,2-0.8,2.8c-0.1,0.1-0.1,0.3-0.1,0.5
		c-0.2,1.2-0.1,2.4-0.1,3.6c0,1,0.1,2,0.7,2.9c0.2,0.3,0.2,0.6,0.3,0.9c0.1,0.5-0.1,1.1,0.3,1.5c0.8,0.8,0.9,1.9,1.4,2.8
		c0.7,1.2,1.6,2.2,2.5,3.3c1,1.1,2.2,2,3.4,2.9c0.1,0.1,0.2,0.1,0.4,0.2c1.1,0.3,1.9,1.1,3,1.3c0.1,0,0.2,0.2,0.3,0.2
		c0.3,0.2,0.6,0.3,0.9,0.3c0.7,0.1,1.5,0,2.2,0.4c1.5,0.8,3.1,0.6,4.7,0.4c0.2,0,0.4-0.1,0.6-0.2c0.5-0.3,1.1-0.4,1.7-0.5
		c0.6-0.1,1.3,0.1,1.9-0.4c0.4-0.4,1-0.5,1.5-0.7c0.2,0,0.3,0,0.4-0.2c0.8-0.8,1.9-1,2.7-1.7c0.6-0.5,1.1-1,1.7-1.5
		c0.6-0.5,1.2-1.1,1.7-1.8c0.5-0.6,1.1-1.3,1.4-2c0.5-1,1.3-1.9,1.4-3c0-0.1,0.1-0.1,0.1-0.2c0.5-0.4,0.5-1,0.5-1.5
		c0.1-0.7,0-1.5,0.4-2.1c0.4-0.7,0.4-1.3,0.4-2.1c0-0.6,0-1.3,0-1.9c0-0.2,0-0.5-0.1-0.6c-0.6-0.9-0.7-1.8-0.7-2.8
		c0-0.5-0.1-1-0.5-1.4c-0.3-0.3-0.4-0.7-0.4-1c-0.1-0.5-0.4-0.9-0.7-1.3c-0.1-0.1-0.2-0.2-0.3-0.4c-0.4-1.4-1.5-2.3-2.4-3.4
		c-1-1.1-2.2-2-3.3-3c-0.1-0.1-0.2-0.2-0.4-0.2c-1-0.3-1.8-1.1-2.9-1.3c-0.1,0-0.2-0.1-0.3-0.2c-0.3-0.4-0.6-0.5-1.1-0.4
		c-0.3,0-0.6,0-0.9-0.1c-0.7-0.1-1.2-0.5-1.9-0.7C250.2,232,249.3,232.1,248.5,232.1z M266.4,228.2c-0.5,0-1.2-0.1-1.7,0.6
		c-0.1,0.1-0.2,0.1-0.3,0.2c-1.3,0.7-1.9,1.9-2,3.4c-0.1,0.8,0.5,1.3,0.8,1.9c0.5,1.2,1.6,1.8,2.6,2.1c1.3,0.5,3.3-0.6,4-1.7
		c0.2-0.3,0.2-0.6,0.4-0.8c0.9-1.1,0.9-2.3,0-3.4c-0.1-0.1-0.2-0.3-0.3-0.4C269,229,268.2,228.1,266.4,228.2z"/>
	<path class="st1" d="M248.5,232.1c0.8,0,1.7-0.1,2.5,0.2c0.6,0.2,1.2,0.6,1.9,0.7c0.3,0,0.6,0.1,0.9,0.1c0.4,0,0.8,0.1,1.1,0.4
		c0.1,0.1,0.2,0.2,0.3,0.2c1.1,0.1,1.9,1,2.9,1.3c0.2,0,0.3,0.2,0.4,0.2c1.1,0.9,2.4,1.8,3.3,3c0.9,1,2,1.9,2.4,3.4
		c0,0.1,0.2,0.2,0.3,0.4c0.3,0.4,0.6,0.8,0.7,1.3c0,0.4,0.2,0.7,0.4,1c0.3,0.4,0.4,0.9,0.5,1.4c0,1,0.1,2,0.7,2.8
		c0.1,0.2,0.1,0.4,0.1,0.6c0,0.6,0,1.3,0,1.9c0,0.7-0.1,1.4-0.4,2.1c-0.4,0.6-0.3,1.4-0.4,2.1c0,0.6,0,1.1-0.5,1.5
		c0,0-0.1,0.1-0.1,0.2c-0.1,1.2-0.9,2-1.4,3c-0.4,0.7-0.9,1.4-1.4,2c-0.5,0.6-1,1.3-1.7,1.8c-0.6,0.4-1.1,1-1.7,1.5
		c-0.8,0.7-2,0.9-2.7,1.7c-0.1,0.1-0.3,0.1-0.4,0.2c-0.5,0.1-1.1,0.2-1.5,0.7c-0.5,0.5-1.2,0.3-1.9,0.4c-0.6,0.1-1.2,0.2-1.7,0.5
		c-0.2,0.1-0.4,0.2-0.6,0.2c-1.6,0.1-3.2,0.4-4.7-0.4c-0.7-0.4-1.5-0.3-2.2-0.4c-0.3,0-0.6-0.1-0.9-0.3c-0.1-0.1-0.2-0.2-0.3-0.2
		c-1.1-0.2-1.9-1-3-1.3c-0.1,0-0.3-0.1-0.4-0.2c-1.1-1-2.4-1.8-3.4-2.9c-0.9-1-1.8-2-2.5-3.3c-0.5-0.9-0.7-2-1.4-2.8
		c-0.4-0.4-0.2-1-0.3-1.5c-0.1-0.3-0.1-0.7-0.3-0.9c-0.6-0.9-0.7-1.9-0.7-2.9c0-1.2,0-2.4,0.1-3.6c0-0.2,0-0.4,0.1-0.5
		c0.7-0.8,0.7-1.9,0.8-2.8c0-0.2,0-0.3,0.1-0.4c0.5-0.4,0.6-1.1,0.9-1.6c0.3-0.7,0.8-1.4,1.2-2.1c0.5-0.7,1-1.5,1.7-2.1
		c0.5-0.4,0.8-1,1.5-1.3c0.6-0.3,1.2-0.8,1.7-1.4c0.3-0.3,0.5-0.5,0.9-0.6c0.3-0.1,0.6-0.2,0.8-0.5c0.2-0.2,0.4-0.3,0.7-0.4
		c0.7-0.1,1.3-0.3,1.8-0.8c0.5-0.4,1.2-0.2,1.7-0.3c0.5-0.1,0.9-0.2,1.4-0.5c0.5-0.3,1-0.3,1.5-0.3
		C247.5,232.1,248,232.1,248.5,232.1z M265.7,250.3c0-9.6-7.7-17.1-17-17.2c-10.1-0.1-17.3,7.9-17.5,16.7
		c-0.2,10.1,7.6,17.7,17.3,17.7C257.9,267.6,265.7,260,265.7,250.3z"/>
	<path class="st1" d="M266.4,228.2c1.8-0.1,2.7,0.8,3.4,1.9c0.1,0.1,0.2,0.3,0.3,0.4c0.9,1,0.9,2.3,0,3.4c-0.2,0.2-0.3,0.6-0.4,0.8
		c-0.6,1-2.6,2.2-4,1.7c-1.1-0.4-2.1-1-2.6-2.1c-0.3-0.6-0.9-1.2-0.8-1.9c0.2-1.4,0.7-2.6,2-3.4c0.1-0.1,0.3-0.1,0.3-0.2
		C265.2,228.1,265.9,228.2,266.4,228.2z M263.3,232.3c-0.2,1.9,1.5,3.4,3.2,3.4c1.8,0,3.6-1.7,3.6-3.3c0-1.5-2-3.6-3.5-3.6
		C264.8,228.8,263.3,230.4,263.3,232.3z"/>
	<path class="st0" d="M265.7,250.3c0,9.7-7.7,17.3-17.2,17.3c-9.7,0-17.6-7.6-17.3-17.7c0.2-8.8,7.4-16.8,17.5-16.7
		C258,233.3,265.7,240.8,265.7,250.3z M235.5,250.4c-0.1,0.5,0.1,1.1,0.4,1.6c0.3,0.6,0.5,1.2,0.4,1.9c0,0.5,0.2,1,0.5,1.4
		c0.1,0.2,0.3,0.3,0.3,0.5c0.5,1.4,1.4,2.5,2.4,3.6c0.4,0.4,0.8,1,1.4,1.1c0.9,0.3,1.4,1.4,2.6,1.2c0.1,0,0.2,0.1,0.2,0.2
		c0.4,0.5,1,0.6,1.6,0.6c2.1,0.1,4.1,0.1,6.2,0c0.6,0,1.1-0.2,1.5-0.6c0.2-0.2,0.5-0.4,0.8-0.3c0.2,0,0.5,0,0.6-0.2
		c0.5-0.5,1.1-0.8,1.7-1.2c1.5-1,2.4-2.7,3.5-4c0.1-0.1,0.1-0.2,0.1-0.3c-0.1-0.5,0.2-0.9,0.5-1.2c0.2-0.2,0.3-0.4,0.4-0.7
		c0.1-1.4,0.3-2.8,0.3-4.2c0-1-0.2-2-0.2-3c0-0.4-0.1-0.9-0.4-1.2c-0.3-0.3-0.4-0.7-0.5-1.1c0-0.2-0.1-0.4-0.2-0.5
		c-0.8-0.7-1.1-1.8-1.9-2.5c-0.6-0.5-1.1-1-1.7-1.4c-0.8-0.5-1.4-1.3-2.4-1.3c-0.1,0-0.1-0.1-0.2-0.2c-0.3-0.4-0.7-0.5-1.2-0.5
		c-1.1-0.1-2.2-0.1-3.3-0.6c-0.2-0.1-0.6-0.1-0.9,0c-1,0.4-2.1,0.6-3.2,0.6c-0.8,0-1.3,0.6-1.9,0.8c-0.9,0.3-1.7,0.8-2.4,1.4
		c-1.5,1.2-2.9,2.6-3.5,4.6c0,0.1-0.1,0.3-0.2,0.4c-0.5,0.4-0.6,1-0.6,1.6c0,0.5,0,1-0.3,1.4C235.6,249,235.5,249.6,235.5,250.4z"/>
	<path class="st0" d="M263.3,232.3c0-1.8,1.6-3.5,3.3-3.5c1.5,0,3.5,2.1,3.5,3.6c0,1.7-1.8,3.3-3.6,3.3
		C264.8,235.7,263.1,234.1,263.3,232.3z"/>
	<path class="st1" d="M235.5,250.4c0-0.8,0.1-1.4,0.5-2c0.3-0.4,0.3-0.9,0.3-1.4c0-0.6,0.1-1.2,0.6-1.6c0.1-0.1,0.2-0.2,0.2-0.4
		c0.6-1.9,2-3.4,3.5-4.6c0.7-0.6,1.5-1.1,2.4-1.4c0.7-0.2,1.1-0.8,1.9-0.8c1.1,0,2.2-0.2,3.2-0.6c0.3-0.1,0.6-0.1,0.9,0
		c1,0.5,2.2,0.4,3.3,0.6c0.5,0.1,0.9,0.2,1.2,0.5c0.1,0.1,0.1,0.2,0.2,0.2c1,0,1.6,0.8,2.4,1.3c0.6,0.4,1.1,0.9,1.7,1.4
		c0.8,0.7,1.1,1.8,1.9,2.5c0.1,0.1,0.2,0.4,0.2,0.5c0.1,0.4,0.2,0.8,0.5,1.1c0.3,0.3,0.4,0.7,0.4,1.2c0,1,0.2,2,0.2,3
		c0,1.4-0.2,2.8-0.3,4.2c0,0.3-0.2,0.5-0.4,0.7c-0.3,0.3-0.6,0.7-0.5,1.2c0,0.1,0,0.2-0.1,0.3c-1.1,1.4-2,3-3.5,4
		c-0.6,0.4-1.2,0.7-1.7,1.2c-0.2,0.2-0.4,0.2-0.6,0.2c-0.3,0-0.6,0.1-0.8,0.3c-0.4,0.4-0.9,0.6-1.5,0.6c-2.1,0.1-4.1,0.1-6.2,0
		c-0.6,0-1.2-0.1-1.6-0.6c-0.1-0.1-0.2-0.2-0.2-0.2c-1.1,0.2-1.6-1-2.6-1.2c-0.5-0.2-1-0.7-1.4-1.1c-1-1.1-2-2.2-2.4-3.6
		c-0.1-0.2-0.2-0.3-0.3-0.5c-0.3-0.4-0.6-0.9-0.5-1.4c0.1-0.7-0.1-1.3-0.4-1.9C235.6,251.5,235.4,250.9,235.5,250.4z"/>
</g>
<g>
	<path class="st0" d="M336.7,216.1c1.6,0,3.2,0,4.8,0c0,0.3,0.1,0.5,0.5,0.5c2.3,0.4,4.7,0.4,6.9,1.2c1.5,0.5,3,0.8,4.4,1.5
		c1.5,0.8,3,1.5,4.4,2.4c1.6,1.1,3.2,2.1,4.6,3.5c1.5,1.5,3.1,2.9,4.3,4.8c0.8,1.3,1.8,2.5,2.5,3.8c0.5,1,1,1.9,1.4,2.9
		c0.6,1.7,1.3,3.3,1.7,5c0.2,0.8,0.2,1.6,0.4,2.3c0.1,0.4,0.3,0.6,0.7,0.6c0,3.5,0,6.9,0,10.4c-0.7,0-0.7,0.5-0.8,0.9
		c-0.2,1.6-0.7,3.1-1.2,4.6c-1,3.1-2.5,5.8-4.4,8.4c-1.7,2.4-3.8,4.6-6.1,6.4c-1.7,1.4-3.5,2.6-5.4,3.6c-1,0.5-1.9,1-2.9,1.4
		c-1.2,0.5-2.5,1-3.8,1.3c-2.4,0.6-4.9,1-7.4,1.2c-2.6,0.2-5.1-0.1-7.6-0.5c-1.8-0.3-3.5-0.9-5.3-1.4c-1.1-0.4-2.2-0.8-3.2-1.4
		c-0.8-0.5-1.7-0.6-2.5-0.4c-3.3,0.9-6.7,1.6-10,2.5c-1.5,0.5-3.2,0.7-4.7,1.2c-0.9,0.3-2-0.8-1.7-1.6c0.2-1,0.6-1.8,0.9-2.8
		c0.6-2.8,1.6-5.5,2.2-8.3c0.3-1.2,0.7-2.3,1.1-3.5c0.2-0.4,0.1-0.8-0.1-1.2c-0.3-0.6-0.6-1.3-0.9-1.9c-0.5-1.1-1-2.2-1.3-3.4
		c-0.5-1.8-1.2-3.5-1.4-5.4c-0.4-2.7-0.6-5.4-0.3-8.1c0.1-1.1,0.1-2.2,0.4-3.3c0.5-1.3,0.6-2.6,1-3.9c0.4-1.2,0.9-2.5,1.4-3.7
		c0.4-1.1,1.1-2.2,1.7-3.2c0.7-1.2,1.5-2.4,2.3-3.6c1.2-1.6,2.8-3,4.2-4.4c1.5-1.4,3.1-2.5,4.8-3.6c1.4-0.9,2.9-1.6,4.4-2.3
		c1.9-0.7,3.8-1.3,5.7-1.7c1.2-0.3,2.4-0.2,3.6-0.5C336.5,216.6,336.7,216.4,336.7,216.1z M348.9,264.7c1.4,0.4,2.4-0.9,3.8-1
		c0.1,0,0.2-0.2,0.3-0.3c0.2-0.2,0.4-0.4,0.7-0.5c0.4-0.1,0.7-0.4,0.9-0.7c0.2-0.3,0.5-0.6,0.8-0.9c0.4-0.5,0.7-2.4,0.4-3
		c-0.1-0.2-0.3-0.4-0.5-0.5c-0.7-0.4-1.3-1-2.2-1.1c-0.2,0-0.5-0.2-0.7-0.4c-0.2-0.2-0.5-0.4-0.8-0.4c-0.5-0.1-1-0.3-1.3-0.6
		c-0.5-0.5-1.7-0.5-2,0c-0.4,0.6-0.8,1-1.2,1.6c-0.9,1.2-1.8,2.4-3.6,2c-0.1,0-0.2,0-0.3,0c-0.7,0-1.3-0.1-1.8-0.7
		c-0.2-0.2-0.5-0.3-0.7-0.3c-1-0.1-1.7-0.9-2.5-1.3c-0.7-0.4-1.4-0.9-2-1.4c-1.3-1-2.6-2.2-3.7-3.4c-1-1-1.6-2.3-2.3-3.5
		c-0.6-1-0.6-1.5,0.1-2.4c0.5-0.7,0.9-1.4,1.5-2.1c0.8-0.9,1-2.1,0.2-3.1c-0.3-0.4-0.6-0.8-0.6-1.4c0-0.4-0.2-0.7-0.5-1
		c-0.3-0.2-0.4-0.5-0.4-0.9c0-1-0.8-1.9-1.8-2.1c-1-0.2-2,0-2.8,0.8c-0.6,0.6-1.2,1.2-1.4,2c0,0.2-0.2,0.3-0.4,0.5
		c-0.2,0.2-0.3,0.4-0.4,0.8c-0.2,1.4-0.1,2.9-0.1,4.3c0,0.3,0,0.7,0.2,0.9c0.9,0.8,0.5,2.4,1.7,3c0.1,0.1,0.1,0.3,0.2,0.5
		c0,0.2,0.1,0.4,0.2,0.6c0.7,0.9,1.4,1.8,2.1,2.6c0.4,0.4,0.5,1,0.9,1.4c1.6,1.7,3.2,3.4,4.8,5.1c0.4,0.4,0.8,0.8,1.3,1.1
		c1,0.5,1.8,1.3,2.7,1.8c0.6,0.3,1.2,0.6,1.7,1.1c0.1,0.1,0.5,0.2,0.7,0.2c0.4,0,0.7,0.2,1.1,0.5c0.9,0.8,2.2,0.7,3.2,1.4
		c0.5,0.4,1.4,0,2,0.4C347,264.7,347.9,264.8,348.9,264.7z"/>
	<path class="st1" d="M336.7,216.1c0,0.3-0.1,0.5-0.5,0.6c-1.2,0.3-2.4,0.2-3.6,0.5c-1.9,0.5-3.8,1-5.7,1.7c-1.6,0.6-3,1.4-4.4,2.3
		c-1.7,1.1-3.3,2.2-4.8,3.6c-1.5,1.4-3,2.8-4.2,4.4c-0.9,1.1-1.6,2.3-2.3,3.6c-0.6,1.1-1.3,2.1-1.7,3.2c-0.5,1.2-0.9,2.5-1.4,3.7
		c-0.5,1.3-0.6,2.6-1,3.9c-0.4,1.1-0.3,2.2-0.4,3.3c-0.3,2.7-0.1,5.4,0.3,8.1c0.3,1.8,0.9,3.6,1.4,5.4c0.4,1.2,0.9,2.3,1.3,3.4
		c0.3,0.6,0.6,1.3,0.9,1.9c0.2,0.4,0.3,0.8,0.1,1.2c-0.4,1.1-0.8,2.3-1.1,3.5c-0.7,2.8-1.6,5.5-2.2,8.3c-0.2,1-0.6,1.9-0.9,2.8
		c-0.2,0.9,0.8,1.9,1.7,1.6c1.6-0.4,3.2-0.7,4.7-1.2c3.3-1,6.7-1.6,10-2.5c0.8-0.2,1.7-0.1,2.5,0.4c1,0.6,2.1,1,3.2,1.4
		c1.7,0.6,3.5,1.1,5.3,1.4c2.5,0.4,5,0.7,7.6,0.5c2.5-0.2,5-0.6,7.4-1.2c1.3-0.3,2.5-0.8,3.8-1.3c1-0.4,2-0.9,2.9-1.4
		c2-0.9,3.7-2.2,5.4-3.6c2.3-1.9,4.4-4,6.1-6.4c1.8-2.6,3.4-5.4,4.4-8.4c0.5-1.5,1-3,1.2-4.6c0-0.4,0.1-0.9,0.8-0.9c0,1,0,2,0,2.9
		c0,0.1,0,0.3-0.1,0.3c-0.7,0.3-0.4,1-0.6,1.5c-0.4,1.1-0.8,2.2-1.2,3.3c-0.2,0.5-0.5,1-0.8,1.5c-0.5,0.8-0.8,1.8-1.5,2.5
		c0,0-0.1,0.1-0.1,0.1c-0.1,1-0.9,1.5-1.4,2.2c-0.4,0.6-0.9,1.2-1.3,1.8c-0.6,0.8-1.4,1.5-2.1,2.3c-0.8,0.9-1.8,1.7-2.7,2.5
		c-0.6,0.5-1.3,0.7-1.7,1.4c-0.1,0.2-0.3,0.2-0.4,0.3c-0.2,0.1-0.5,0.2-0.7,0.4c-0.9,0.7-2,1.2-3,1.8c-0.8,0.5-1.8,0.7-2.5,1.3
		c-0.6,0.5-1.3,0.4-2,0.6c-0.2,0.1-0.5,0-0.6,0.2c-0.4,0.6-1,0.6-1.6,0.6c-0.8,0-1.5,0.2-2.1,0.6c-0.5,0.3-1.1,0.3-1.7,0.3
		c-1.6,0-3.3,0-4.9,0.3c-0.6,0.1-1.3,0-1.9-0.1c-1.5-0.2-3.1,0-4.6-0.3c-0.1,0-0.3,0-0.3-0.1c-0.9-0.8-2.1-0.5-3.1-0.9
		c-1-0.4-2.2-0.5-3.1-1c-0.9-0.5-2.1-0.6-2.9-1.4c-0.4-0.4-1-0.1-1.4,0.1c-0.6,0.4-1.2,0.5-1.8,0.5c-0.7,0-1.3,0.1-1.9,0.4
		c-0.9,0.5-1.9,0.5-2.8,0.6c-0.7,0.1-1.4,0.1-2.1,0.6c-0.4,0.3-1,0.3-1.5,0.3c-0.8,0-1.6,0.1-2.2,0.7c-0.2,0.2-0.5,0.1-0.7,0.2
		c-0.8,0.1-1.6,0.2-2.4,0.2c-1.2,0-1.9-0.7-1.9-1.9c0-1.2,0.1-2.4,0.8-3.5c0.5-0.8,0.3-1.8,0.5-2.7c0-0.1,0-0.3,0.1-0.4
		c0.7-0.8,0.7-1.8,0.8-2.8c0-0.2,0-0.4,0.1-0.5c0.8-0.7,0.7-1.7,0.8-2.7c0-0.2,0-0.3,0.1-0.4c0.7-0.6,0.7-1.4,0.8-2.2
		c0.1-0.6,0.1-1.3-0.5-1.8c-0.4-0.3-0.5-0.7-0.5-1.2c0-0.3-0.1-0.5-0.3-0.7c-0.3-0.3-0.5-0.6-0.5-1c0-0.6-0.3-1.2-0.7-1.7
		c-0.4-0.6-0.3-1.4-0.4-2.1c-0.1-0.5-0.3-1.1-0.6-1.6c-0.4-0.7-0.3-1.6-0.4-2.3c-0.2-2.2-0.2-4.5-0.2-6.7c0.1-1.4,0.2-2.7,0.3-4.1
		c0-0.1,0-0.3,0.1-0.4c0.6-1.1,0.8-2.4,0.9-3.7c0-0.2,0.1-0.4,0.2-0.5c0.4-0.4,0.6-0.9,0.6-1.5c0-0.2,0.1-0.5,0.2-0.7
		c0.6-0.5,0.7-1.3,1.1-1.8c0.6-0.8,0.8-1.7,1.4-2.5c0.6-0.8,1.2-1.7,1.8-2.6c0.6-1,1.4-1.9,2.2-2.8c0.2-0.3,0.5-0.5,0.8-0.7
		c0.7-0.6,1.3-1.3,1.9-1.9c0.9-0.9,2-1.7,3-2.5c0.6-0.4,1.5-0.7,2.1-1.2c0.9-0.8,2-1.1,3-1.6c1-0.5,1.9-1.2,3-1.3
		c0.3,0,0.6-0.2,0.8-0.4c0.6-0.3,1.2-0.7,2-0.7c0.4,0,0.9,0,1-0.5c0,0,0.2-0.1,0.3-0.1C333.8,216.1,335.2,216.1,336.7,216.1z"/>
	<path class="st1" d="M373.2,244.8c-0.4,0-0.5-0.2-0.7-0.6c-0.2-0.8-0.3-1.6-0.4-2.3c-0.4-1.7-1.1-3.4-1.7-5c-0.4-1-0.9-2-1.4-2.9
		c-0.7-1.4-1.7-2.6-2.5-3.8c-1.2-1.8-2.8-3.2-4.3-4.8c-1.4-1.4-3-2.4-4.6-3.5c-1.4-1-2.9-1.7-4.4-2.4c-1.4-0.7-2.9-1-4.4-1.5
		c-2.3-0.8-4.6-0.8-6.9-1.2c-0.4-0.1-0.5-0.2-0.5-0.5c1.9,0,3.8,0,5.6,0c0.1,0,0.3,0,0.3,0.1c0.3,0.7,0.9,0.4,1.4,0.6
		c0,0,0.1,0,0.1,0c1.2,0.7,2.7,0.8,3.9,1.5c0.8,0.5,1.7,0.9,2.5,1.3c1.1,0.5,2.1,1.2,3.1,1.8c1.2,0.7,2.1,1.8,3.3,2.4
		c0.3,0.1,0.5,0.5,0.8,0.8c0.5,0.5,1.2,0.8,1.5,1.5c0.2,0.4,0.7,0.7,1.1,1c0.9,0.9,1.5,1.9,2.3,2.9c0.5,0.6,1.2,1.2,1.3,2.1
		c0,0.1,0.2,0.3,0.3,0.4c0.3,0.4,0.7,0.7,0.7,1.3c0,0.2,0.2,0.4,0.3,0.5c0.3,0.4,0.6,0.8,0.7,1.3c0,0.3,0.2,0.5,0.4,0.8
		c0.1,0.1,0.2,0.2,0.3,0.4c0.2,1.4,1.2,2.5,1.3,4c0,0.1,0,0.2,0.1,0.2c0.8,0.3,0.4,0.9,0.5,1.4C373.3,243,373.2,243.9,373.2,244.8z"
		/>
	<path class="st1" d="M348.9,264.7c-1,0.1-1.8,0-2.6-0.6c-0.6-0.4-1.5,0-2-0.4c-1-0.7-2.3-0.5-3.2-1.4c-0.3-0.3-0.6-0.5-1.1-0.5
		c-0.2,0-0.5,0-0.7-0.2c-0.5-0.5-1.1-0.7-1.7-1.1c-0.9-0.5-1.7-1.4-2.7-1.8c-0.5-0.2-0.9-0.7-1.3-1.1c-1.6-1.7-3.2-3.4-4.8-5.1
		c-0.4-0.4-0.6-0.9-0.9-1.4c-0.7-0.9-1.4-1.7-2.1-2.6c-0.1-0.2-0.2-0.4-0.2-0.6c0-0.2,0-0.4-0.2-0.5c-1.2-0.7-0.8-2.2-1.7-3
		c-0.2-0.2-0.2-0.6-0.2-0.9c0-1.4-0.1-2.9,0.1-4.3c0-0.3,0.2-0.5,0.4-0.8c0.1-0.1,0.3-0.3,0.4-0.5c0.2-0.9,0.8-1.5,1.4-2
		c0.7-0.8,1.8-1,2.8-0.8c1,0.2,1.8,1.1,1.8,2.1c0,0.4,0.1,0.6,0.4,0.9c0.3,0.3,0.5,0.6,0.5,1c0,0.6,0.2,1,0.6,1.4
		c0.8,1,0.7,2.2-0.2,3.1c-0.6,0.6-1,1.4-1.5,2.1c-0.7,0.9-0.6,1.5-0.1,2.4c0.7,1.2,1.3,2.5,2.3,3.5c1.1,1.2,2.4,2.4,3.7,3.4
		c0.6,0.5,1.3,1,2,1.4c0.8,0.5,1.4,1.3,2.5,1.3c0.3,0,0.5,0.1,0.7,0.3c0.5,0.6,1.1,0.6,1.8,0.7c0.1,0,0.2,0,0.3,0
		c1.8,0.4,2.7-0.8,3.6-2c0.4-0.5,0.8-1,1.2-1.6c0.3-0.5,1.5-0.5,2,0c0.4,0.4,0.8,0.6,1.3,0.6c0.3,0,0.6,0.2,0.8,0.4
		c0.2,0.2,0.4,0.4,0.7,0.4c0.9,0.1,1.5,0.8,2.2,1.1c0.2,0.1,0.4,0.2,0.5,0.5c0.3,0.5,0,2.5-0.4,3c-0.3,0.3-0.5,0.6-0.8,0.9
		c-0.2,0.4-0.5,0.6-0.9,0.7c-0.3,0.1-0.5,0.3-0.7,0.5c-0.1,0.1-0.2,0.3-0.3,0.3C351.3,263.8,350.3,265.1,348.9,264.7z"/>
</g>
<g>
	<path class="st0" d="M125.1,276c0-17.3,0-34.6,0-51.8c0.2-0.1,0.4,0,0.5-0.2c0.4-0.8,0.9-1.4,1.3-2.1c0.9-1.5,2.2-2.2,4-2.2
		c12,0,23.9,0,35.9,0c7.4,0,14.7,0,22.1,0c1,0,1.8,0.3,2.6,1c1.6,1.4,2.3,3.2,2.3,5.3c0,16.2,0,32.3,0,48.5c0,1-0.1,2-0.6,3
		c-1.1,1.9-2.4,3.2-4.9,3.2c-19-0.1-37.9,0-56.9,0c-0.4,0-0.8,0-1.3,0c-0.7,0-1.3-0.3-1.9-0.7c-1-0.6-1.5-1.7-2.1-2.6
		C125.9,276.8,125.8,276.1,125.1,276z M191.8,250.2c0-1.3,0-2.7,0-4c0-6,0-12,0-18c0-0.5,0.1-1.1-0.6-1.3c-0.6-0.2-0.9,0.3-1.2,0.7
		c-0.7,0.9-1.4,1.9-2.2,2.8c-1.2,1.3-2.1,2.7-3.2,4c-1.2,1.5-2.4,3.1-3.6,4.6c-1.5,1.8-2.9,3.7-4.4,5.5c-1.2,1.4-2.4,2.9-3.4,4.4
		c-0.7,1-0.7,1.6,0,2.6c1.7,2.4,3.7,4.4,5.4,6.8c1.1,1.6,2.4,3.1,3.6,4.6c1.1,1.5,2.2,3,3.4,4.4c1.6,1.9,3.1,3.8,4.6,5.8
		c0.4,0.6,1.2,0.6,1.5,0c0.1-0.2,0.1-0.5,0.1-0.7C191.8,264.9,191.8,257.5,191.8,250.2z M128.5,273.5c0.2,0.1,0.4-0.1,0.5-0.3
		c0.6-0.7,1.3-1.5,1.9-2.2c0.3-0.4,0.7-0.8,1-1.2c0.8-1,1.4-2.1,2.2-3.1c0.9-1.1,1.9-2.2,2.8-3.3c0.7-1,1.4-2.1,2.2-3
		c1.6-2,3.4-3.8,4.8-6c0.8-1.3,1.9-2.3,2.9-3.5c0.5-0.6,0.5-1,0-1.6c-1.2-1.4-2.3-2.8-3.5-4.1c-0.8-0.9-1.4-1.9-2.1-2.8
		c-1-1.2-2.1-2.4-3.1-3.7c-1.1-1.5-2.1-3.1-3.3-4.5c-1.3-1.5-2.5-3-3.6-4.6c-0.7-0.9-1.3-1.9-2.2-2.6c-0.2-0.2-0.4-0.3-0.6-0.2
		c-0.3,0.1-0.4,0.3-0.4,0.7c0,0.5,0,0.9,0,1.4c0,14,0,28.1,0,42.1c0,0.6,0,1.2-0.1,1.8C127.7,273.1,127.9,273.5,128.5,273.5z
		 M160.4,277.5C160.4,277.5,160.4,277.5,160.4,277.5c9.3,0,18.6,0,27.9,0c1.3,0,1.7-0.6,1-1.6c-0.9-1.3-2-2.5-3-3.8
		c-1.2-1.5-2.4-3-3.6-4.5c-0.9-1.2-1.8-2.3-2.8-3.5c-0.6-0.8-1.3-1.6-1.9-2.4c-1.1-1.5-2.3-2.9-3.4-4.4c-1-1.3-2.1-2.4-2.9-3.8
		c-0.4-0.7-1.7-1-2.1-0.1c-0.3,0.7-0.8,1.2-1.2,1.8c-1.2,1.6-2.4,3.2-3.9,4.7c-2,2-4.4,2.3-6.9,1.6c-1.6-0.4-2.7-1.6-3.7-2.9
		c-1.3-1.6-2.5-3.2-3.8-4.8c-1-1.2-1.6-1.2-2.4,0.2c0,0,0,0,0,0.1c-0.8,1.1-1.7,2.1-2.5,3.2c-0.6,0.8-1.4,1.4-1.9,2.3
		c-0.4,0.7-0.9,1.4-1.4,2c-1.5,1.5-2.6,3.3-4,5c-1.2,1.4-2.4,2.9-3.5,4.4c-1.3,1.8-2.8,3.5-4.2,5.3c-0.3,0.3-0.4,0.7-0.2,1
		c0.2,0.4,0.5,0.6,1,0.6c0.6-0.1,1.2-0.1,1.9-0.1C142.1,277.5,151.2,277.5,160.4,277.5z"/>
	<path class="st1" d="M125.1,276c0.7,0.1,0.8,0.8,1.2,1.2c0.6,0.9,1.1,1.9,2.1,2.6c0.6,0.4,1.2,0.6,1.9,0.7c0.4,0,0.8,0,1.3,0
		c19,0,37.9,0,56.9,0c2.5,0,3.8-1.3,4.9-3.2c0.5-0.9,0.6-2,0.6-3c0-16.2,0-32.3,0-48.5c0-2.1-0.7-3.9-2.3-5.3c-0.7-0.6-1.6-1-2.6-1
		c-7.4,0-14.7,0-22.1,0c-12,0-23.9,0-35.9,0c-1.7,0-3.1,0.7-4,2.2c-0.4,0.7-1,1.4-1.3,2.1c-0.1,0.2-0.3,0.2-0.5,0.2
		c0-0.1,0-0.3,0-0.4c0-0.8-0.2-1.6,0.8-2c0.5-0.2,0.8-0.7,1.1-1.2c0.7-1,1.8-1.3,2.8-1.9c0.3-0.2,0.7-0.1,1.1-0.1
		c19.2,0,38.4,0,57.6,0c0.9,0,1.6,0.2,2.4,0.6c1.1,0.5,1.9,1.3,2.6,2.3c0.7,0.9,1.1,1.9,1.1,3.1c0,17,0,34,0,50.9
		c0,1.3-0.4,2.3-1.1,3.2c-0.6,0.8-1.4,1.5-2.3,2.1c-0.9,0.5-1.7,0.6-2.6,0.6c-19.2,0-38.5,0-57.7,0c-1.4,0-2.3-0.6-3.3-1.4
		c-0.8-0.6-1.1-1.7-2.2-2c-0.1,0-0.1-0.2-0.1-0.4C125.1,277.1,125.1,276.5,125.1,276z"/>
	<path class="st1" d="M191.8,250.2c0,7.4,0,14.7,0,22.1c0,0.2,0,0.5-0.1,0.7c-0.3,0.6-1.1,0.6-1.5,0c-1.5-2-3-3.9-4.6-5.8
		c-1.2-1.4-2.3-3-3.4-4.4c-1.2-1.5-2.5-3-3.6-4.6c-1.7-2.4-3.7-4.4-5.4-6.8c-0.7-1-0.7-1.6,0-2.6c1.1-1.5,2.2-3,3.4-4.4
		c1.5-1.8,2.9-3.7,4.4-5.5c1.2-1.5,2.4-3,3.6-4.6c1.1-1.3,2-2.7,3.2-4c0.8-0.9,1.5-1.8,2.2-2.8c0.3-0.4,0.5-0.9,1.2-0.7
		c0.6,0.2,0.6,0.8,0.6,1.3c0,6,0,12,0,18C191.8,247.5,191.8,248.8,191.8,250.2z"/>
	<path class="st1" d="M128.5,273.5c-0.6,0-0.8-0.4-0.7-0.8c0.1-0.6,0.1-1.2,0.1-1.8c0-14,0-28.1,0-42.1c0-0.5,0-0.9,0-1.4
		c0-0.3,0.1-0.5,0.4-0.7c0.3-0.1,0.5,0.1,0.6,0.2c0.9,0.8,1.6,1.7,2.2,2.6c1.1,1.6,2.4,3.1,3.6,4.6c1.2,1.4,2.2,3,3.3,4.5
		c1,1.3,2.1,2.4,3.1,3.7c0.8,0.9,1.3,1.9,2.1,2.8c1.2,1.4,2.3,2.8,3.5,4.1c0.5,0.6,0.5,1,0,1.6c-1,1.2-2.1,2.2-2.9,3.5
		c-1.4,2.1-3.1,4-4.8,6c-0.8,0.9-1.5,2-2.2,3c-0.8,1.2-1.8,2.2-2.8,3.3c-0.8,1-1.5,2.1-2.2,3.1c-0.3,0.4-0.7,0.8-1,1.2
		c-0.6,0.8-1.3,1.5-1.9,2.2C128.9,273.4,128.7,273.5,128.5,273.5z"/>
	<path class="st1" d="M160.4,277.5c-9.2,0-18.4,0-27.5,0c-0.6,0-1.2,0.1-1.9,0.1c-0.5,0.1-0.8-0.2-1-0.6c-0.2-0.4,0-0.7,0.2-1
		c1.4-1.7,2.9-3.4,4.2-5.3c1.1-1.5,2.3-2.9,3.5-4.4c1.3-1.6,2.5-3.5,4-5c0.6-0.6,1-1.3,1.4-2c0.5-0.8,1.2-1.5,1.9-2.3
		c0.9-1,1.7-2.1,2.5-3.2c0,0,0,0,0-0.1c0.8-1.4,1.4-1.5,2.4-0.2c1.3,1.6,2.5,3.2,3.8,4.8c1,1.3,2.1,2.4,3.7,2.9
		c2.5,0.7,4.9,0.4,6.9-1.6c1.4-1.4,2.6-3.1,3.9-4.7c0.4-0.6,0.9-1.1,1.2-1.8c0.4-1,1.7-0.7,2.1,0.1c0.8,1.4,1.9,2.5,2.9,3.8
		c1.1,1.5,2.3,3,3.4,4.4c0.6,0.8,1.3,1.6,1.9,2.4c0.9,1.2,1.8,2.3,2.8,3.5c1.2,1.5,2.4,2.9,3.6,4.5c1,1.3,2.1,2.5,3,3.8
		c0.7,1,0.3,1.6-1,1.6C179,277.5,169.7,277.5,160.4,277.5C160.4,277.5,160.4,277.5,160.4,277.5z M159.8,276.8
		C159.8,276.8,159.8,276.8,159.8,276.8c9.2,0,18.4,0,27.5,0c0.3,0,0.6,0,0.9,0c0.2,0,0.3,0,0.4-0.1c0.1-0.2,0-0.4-0.1-0.5
		c-1-1-1.8-2.3-2.8-3.4c-1.3-1.5-2.5-3.1-3.7-4.7c-0.7-1-1.5-1.9-2.3-2.9c-0.7-0.8-1.3-1.7-2-2.5c-0.7-0.8-1.3-1.8-2-2.6
		c-0.5-0.7-1.1-1.3-1.6-2c-0.5-0.6-0.9-1.2-1.3-1.7c-0.5-0.6-1.1-1.2-1.5-2c-0.5-0.8-0.9-0.9-1.4-0.1c0,0.1-0.1,0.1-0.1,0.2
		c-1.2,1.3-2.2,2.9-3.4,4.3c-1.4,1.6-2.8,3.3-5.1,3.5c-0.2,0-0.4,0.1-0.6,0.2c-0.7,0.3-1.3,0.3-1.9,0c-1.1-0.4-2.3-0.4-3.3-1.3
		c-0.5-0.5-1.1-0.9-1.6-1.4c-0.5-0.5-0.9-1-1.3-1.6c-0.6-0.8-1.2-1.5-1.8-2.3c-0.5-0.6-1-1.3-1.5-2c-0.3-0.3-0.5-0.4-0.7,0.1
		c-0.3,0.5-0.6,0.9-0.9,1.3c-1.4,1.6-2.7,3.3-3.9,5c-0.9,1.3-2,2.4-2.9,3.7c-0.9,1.1-1.8,2.3-2.8,3.3c-1.2,1.2-2.4,2.5-3.2,4.2
		c-0.5,1.1-1.5,1.9-2.2,2.8c-0.5,0.6-1,1.3-1.6,1.9c-0.3,0.4-0.2,0.6,0.3,0.6c0.1,0,0.3,0,0.4,0
		C141.1,276.8,150.4,276.8,159.8,276.8z"/>
	<path class="st2" d="M159.8,276.8c-9.4,0-18.7,0-28.1,0c-0.1,0-0.3,0-0.4,0c-0.5,0-0.6-0.2-0.3-0.6c0.5-0.6,1-1.3,1.6-1.9
		c0.8-0.9,1.7-1.8,2.2-2.8c0.8-1.7,2-3,3.2-4.2c1-1,1.9-2.2,2.8-3.3c1-1.2,2-2.4,2.9-3.7c1.3-1.7,2.6-3.4,3.9-5
		c0.3-0.4,0.6-0.9,0.9-1.3c0.2-0.4,0.4-0.4,0.7-0.1c0.5,0.6,1,1.3,1.5,2c0.6,0.8,1.3,1.5,1.8,2.3c0.4,0.6,0.9,1.1,1.3,1.6
		c0.5,0.5,1.1,1,1.6,1.4c1,0.9,2.2,0.9,3.3,1.3c0.6,0.2,1.3,0.3,1.9,0c0.2-0.1,0.4-0.1,0.6-0.2c2.4-0.2,3.7-1.9,5.1-3.5
		c1.2-1.4,2.2-2.9,3.4-4.3c0,0,0.1-0.1,0.1-0.2c0.5-0.8,0.9-0.8,1.4,0.1c0.4,0.7,1,1.3,1.5,2c0.4,0.6,0.8,1.2,1.3,1.7
		c0.6,0.6,1.1,1.3,1.6,2c0.7,0.9,1.3,1.8,2,2.6c0.7,0.8,1.3,1.7,2,2.5c0.8,1,1.5,1.9,2.3,2.9c1.2,1.6,2.4,3.1,3.7,4.7
		c0.9,1.1,1.7,2.4,2.8,3.4c0.1,0.1,0.2,0.3,0.1,0.5c-0.1,0.2-0.3,0.1-0.4,0.1c-0.3,0-0.6,0-0.9,0C178.2,276.8,169,276.8,159.8,276.8
		C159.8,276.8,159.8,276.8,159.8,276.8z"/>
</g>
</svg>
