<svg id="Layer_1" data-name="Layer 1" xmlns="http://www.w3.org/2000/svg" viewBox="0 0 490 480.66"><defs><style>.cls-1{fill:#506072;}.cls-2,.cls-4{fill:none;}.cls-2,.cls-4,.cls-5{stroke:#506072;stroke-miterlimit:10;}.cls-2{stroke-width:4px;}.cls-3,.cls-5{fill:#c1cadc;}.cls-4,.cls-5{stroke-width:1.5px;}</style></defs><title>logo-nova</title><g id="OBJECTS"><path class="cls-1" d="M47.41,378.09,42,366.42l19.26-29.37v-.2l-27,12.84-4.09-8.56,39.1-18.48,5.25,11.29L54.6,364.09v.19l27.82-13,4.08,8.56L47.41,378.09ZM7.14,299.7,5,287.45l10.5,8.94,1.37,8L7.14,299.7Zm12.45,1.95-1.36-7.79L57.52,267.8l1.95,10.5-8.37,5.45L54,300.28l9.53,2,1.75,10.31L19.59,301.65Zm11.86-5.84,14.21,2.92L43.9,288.42l-12.45,7.39ZM14.53,253.4l1.17-14.2a39.07,39.07,0,0,1,1.94-9.72,20.51,20.51,0,0,1,4.48-7.78,17,17,0,0,1,7.2-4.87,21.14,21.14,0,0,1,10.11-1.16,18.58,18.58,0,0,1,9,2.72,19.8,19.8,0,0,1,6.22,5.84,26.46,26.46,0,0,1,3.5,8,24.69,24.69,0,0,1,.59,9.34L57.52,257.1Zm35-6.61.38-4.86a21.85,21.85,0,0,0-.19-6.23,17.1,17.1,0,0,0-1.75-5,8.51,8.51,0,0,0-3.89-3.51,13.9,13.9,0,0,0-6-1.75,10.83,10.83,0,0,0-5.64.78,10.55,10.55,0,0,0-4.09,2.92,14.67,14.67,0,0,0-2.72,4.47,27,27,0,0,0-1.17,5.64l-.39,5.65,25.49,1.94ZM23.09,192.52l2.53-9.14,41.43,11.67-2.53,9.14Zm16.53-44.74,3.51-7L90,143.5,85.14,153l-9.92-.78-7.58,15,6.61,7.39L69.58,184l-30-36.18Zm12.84,2.33L62,160.81l4.67-9.34-14.2-1.36Zm55.05-73.53a6.18,6.18,0,0,0-3.69.59,13.31,13.31,0,0,0-3.31,1.94,5.38,5.38,0,0,0-1.36,1.56,8.79,8.79,0,0,0-1,1.94,4.2,4.2,0,0,0-.39,2.14,2.71,2.71,0,0,0,1,2,3.39,3.39,0,0,0,3.11,1.17,17.8,17.8,0,0,0,3.89-1.17c1.36-.58,2.92-1.36,4.48-2.14a24.08,24.08,0,0,1,4.86-1.75,8.93,8.93,0,0,1,5.06.19,10.43,10.43,0,0,1,5.25,3.5A16.55,16.55,0,0,1,128.72,92a14.06,14.06,0,0,1,.38,5.64A14.43,14.43,0,0,1,127,103a24.58,24.58,0,0,1-4.09,4.86,22.47,22.47,0,0,1-6.61,4.28,19.92,19.92,0,0,1-7.78,1.56V103.62a9.45,9.45,0,0,0,4.66-.19,8.66,8.66,0,0,0,4.09-2.34,12.35,12.35,0,0,0,1.56-1.75,7.5,7.5,0,0,0,1-2.14,8.13,8.13,0,0,0,.19-2.14,4.55,4.55,0,0,0-1-1.94A3.4,3.4,0,0,0,115.88,92a22.42,22.42,0,0,0-4.09,1.17c-1.55.58-2.92,1.36-4.67,2.14A22,22,0,0,1,102.07,97,11.08,11.08,0,0,1,97,97c-1.75-.39-3.31-1.56-5.06-3.31a14.13,14.13,0,0,1-3.11-5.44,11.36,11.36,0,0,1-.2-5.65,14.64,14.64,0,0,1,2.14-5.44,23.05,23.05,0,0,1,3.89-4.87,32.07,32.07,0,0,1,5.84-4.08,16.62,16.62,0,0,1,6.81-1.56l.19,9.92Zm16.73-26.26,25.29-14.78L154,43.13l-17.11,9.92,4.08,7,16.15-9.34,4.47,7.59-16.15,9.34,4.48,7.58L168,64.72l4.47,7.58L146.22,87.67l-22-37.35Zm97.85,2.14a34.19,34.19,0,0,1-7.59,5.45,34.23,34.23,0,0,1-8.75,3.5,27,27,0,0,1-9.34,1.17A20.67,20.67,0,0,1,188,60.24a22.19,22.19,0,0,1-6.61-5.44,23.68,23.68,0,0,1-4.28-8.56,23.18,23.18,0,0,1-1-9.53,19.44,19.44,0,0,1,2.72-8.17,18.31,18.31,0,0,1,5.84-6.42A29.27,29.27,0,0,1,193.3,18a33.25,33.25,0,0,1,9.53-1.36,18.36,18.36,0,0,1,8.56,1.95l-4.48,8.94a12.15,12.15,0,0,0-5-1.75,14.84,14.84,0,0,0-6.23.78,13.92,13.92,0,0,0-5.06,2.53,15.23,15.23,0,0,0-3.3,3.89,13.75,13.75,0,0,0-1.36,5.06,14.31,14.31,0,0,0,.58,5.64A13.61,13.61,0,0,0,189,48.77a16.48,16.48,0,0,0,3.89,3.5,13.08,13.08,0,0,0,10.5,1,18.93,18.93,0,0,0,4.87-2.14,26.51,26.51,0,0,0,3.11-2.33L209.44,42l-7.39,2.14-2.53-8.37,16.15-4.66,6.42,21.39Zm28.59-42.6,7.78-.19,20,42.6-10.7.19-3.89-9.14-16.73.39-3.31,9.14-10.5.2L250.68,9.86Zm4.09,12.45L249.9,35.93l10.51-.2ZM298.53,21l-12.06-2.14L288,10.45l33.65,6-1.55,8.36L308.06,22.7l-6.22,34.24-9.34-1.75,6-34.24ZM331.8,41.57a23.15,23.15,0,0,1,5.44-7.78,19.35,19.35,0,0,1,7.39-4.47,21.07,21.07,0,0,1,8.56-1.17,26.41,26.41,0,0,1,9.15,2.33,24.9,24.9,0,0,1,7.78,5.25,22.5,22.5,0,0,1,4.86,7.2,18,18,0,0,1,1.36,8.56A24.5,24.5,0,0,1,374,60.83a23.27,23.27,0,0,1-5.45,7.78,19.35,19.35,0,0,1-7.39,4.47,21.2,21.2,0,0,1-8.56,1.17,26.36,26.36,0,0,1-9.14-2.33,25.09,25.09,0,0,1-7.78-5.26,22.49,22.49,0,0,1-4.87-7.19,18.24,18.24,0,0,1-1.36-8.56A27.37,27.37,0,0,1,331.8,41.57Zm8.94,4.09a15,15,0,0,0-1.36,5.44,11,11,0,0,0,.59,5.06,12,12,0,0,0,2.72,4.47,14.3,14.3,0,0,0,4.67,3.31,14.85,14.85,0,0,0,5.44,1.36,11.13,11.13,0,0,0,5.06-1,11.94,11.94,0,0,0,4.28-2.92,15,15,0,0,0,3.11-4.67,14,14,0,0,0,1.37-5.44,11,11,0,0,0-.59-5.06,12.09,12.09,0,0,0-2.72-4.48,14.28,14.28,0,0,0-4.67-3.3,14.89,14.89,0,0,0-5.45-1.36,11.12,11.12,0,0,0-5.05,1A10.35,10.35,0,0,0,343.86,41,17.63,17.63,0,0,0,340.74,45.66Z" transform="translate(-5 -9.67)"/><path class="cls-1" d="M175.4,450.45l2.34,1v23.34l-3.12-1.36.2-5.64-9.34-4.09-4.08,4.09-3.12-1.36,17.12-16ZM174.82,465l.19-10.7-7.58,7.4,7.39,3.3Zm22-6.42,7.2,1.95a9.43,9.43,0,0,1,3.11,1.36,3.62,3.62,0,0,1,1.55,1.95,4.4,4.4,0,0,1,.59,2.14,7.81,7.81,0,0,1-.2,2.14,3.16,3.16,0,0,1-1,1.75,5.25,5.25,0,0,1-1.56,1.36,5.85,5.85,0,0,1-1.94.78,4.87,4.87,0,0,1-2.34,0l3.31,11.08-3.5-1-2.72-10.5-3.12-.78L193.69,480l-2.73-.78,5.84-20.62Zm.19,9.73,3.7,1c.58.2,1.17.2,1.75.39H204a4.88,4.88,0,0,0,1.36-.78,3.91,3.91,0,0,0,.78-1.55,6.85,6.85,0,0,0,.19-1.75,3,3,0,0,0-.78-1.36,8.41,8.41,0,0,0-1.36-1c-.58-.19-1-.39-1.56-.58l-3.69-1L197,468.35Zm44.74,20.81-12.25-1.55a9.44,9.44,0,0,1-4.09-1.36,11.24,11.24,0,0,1-3.3-2.73,9.55,9.55,0,0,1-2-3.69,11.47,11.47,0,0,1,1-8.76,14.3,14.3,0,0,1,2.73-3.11,9.23,9.23,0,0,1,3.69-1.75A11.31,11.31,0,0,1,232,466a9.19,9.19,0,0,1,4.08,1.36,10.32,10.32,0,0,1,3.11,2.72,13.53,13.53,0,0,1,2,3.7,10.44,10.44,0,0,1,.39,4.28c-.2,1-.39,1.75-.59,2.53l-1.16,2.33a7.59,7.59,0,0,1-1.75,1.75,5.39,5.39,0,0,1-2.34,1.17l6.23.78-.2,2.52Zm-11.86-4.28a9.16,9.16,0,0,0,3.3-.19,12,12,0,0,0,2.73-1.36,8.61,8.61,0,0,0,1.94-2.53,8.15,8.15,0,0,0,1-3.11,9.48,9.48,0,0,0-.19-3.31,7.19,7.19,0,0,0-1.36-2.72,5.67,5.67,0,0,0-2.34-2,5.88,5.88,0,0,0-3.11-1,8.34,8.34,0,0,0-3.11.19A7.14,7.14,0,0,0,226,470.3a5.7,5.7,0,0,0-1.95,2.33,8.33,8.33,0,0,0-1,3.11,6.21,6.21,0,0,0,.19,3.31,7.87,7.87,0,0,0,1.17,2.92,8.33,8.33,0,0,0,2.33,2.14c.78.19,1.95.58,3.12.77Zm28.4-16.72.19,13.22a10.17,10.17,0,0,0,.39,2.14,6.25,6.25,0,0,0,1,2,4.6,4.6,0,0,0,1.75,1.55,5.39,5.39,0,0,0,2.53.59,4.83,4.83,0,0,0,2.53-.59,5.75,5.75,0,0,0,1.56-1.55,8.86,8.86,0,0,0,1-2,8.13,8.13,0,0,0,.19-2.14l-.19-13.22h2.92l.19,13.61a10.93,10.93,0,0,1-.58,3.5,8.12,8.12,0,0,1-1.75,2.73,7.43,7.43,0,0,1-2.53,1.75,9.71,9.71,0,0,1-6.61,0,8.12,8.12,0,0,1-2.73-1.75,7.43,7.43,0,0,1-1.75-2.53,16.73,16.73,0,0,1-.78-3.31l-.19-13.61,2.92-.39Zm27.23-1.56,2.92-.39,2.72,21.4-2.92.39Zm21.59-.78-6.81,1.56-.58-2.73L316,461l.58,2.72-6.8,1.56,4.08,18.28-2.92.59-3.89-18.29Zm19.84-8.17L340,453l1,2.53-10.31,3.7,2.14,6,9.53-3.5,1,2.53-9.53,3.5,2.34,6.42L347,470.3l1,2.52-13.61,4.87-7.4-20Zm30.15-9.53-6.22,3.11-1.17-2.53,15-7.58,1.17,2.53-6.23,3.11,8.56,16.73-2.53,1.36-8.56-16.73Zm20.62-15,2.14-1.55,19.46,12.83-2.92,1.95-4.67-3.31-8.56,5.64,1.17,5.64-2.92,2-3.7-23.15Zm11.87,8.37-8.75-6L383,446Zm19.26-33.07,9.72-9.92,1.95,1.94-7.59,7.78,4.67,4.48,7.2-7.39,1.94,1.94-7.19,7.39,4.86,4.87,8-8.17,1.95,1.94-10.12,10.31-15.36-15.17Zm29.56-35.6,11.09,7a5.78,5.78,0,0,0,1.95.78,4,4,0,0,0,2.14.2,4.46,4.46,0,0,0,2.14-.59,3.51,3.51,0,0,0,1.75-1.94,7.45,7.45,0,0,0,.78-2.53,3.83,3.83,0,0,0-.39-2.14,14,14,0,0,0-1.17-1.75,10.86,10.86,0,0,0-1.56-1.36l-11.08-7,1.55-2.53,11.48,7.2a7.37,7.37,0,0,1,2.53,2.34,10,10,0,0,1,1.36,2.91,8.61,8.61,0,0,1,0,3.12,10.14,10.14,0,0,1-1.17,3.11,9.56,9.56,0,0,1-2.33,2.53,5.82,5.82,0,0,1-2.92,1.36,8.56,8.56,0,0,1-3.11,0,8,8,0,0,1-3.31-1.36L436.64,375l1.75-2.14Zm13.43-23.34,3.11-6.81a11,11,0,0,1,1.94-2.92,6.65,6.65,0,0,1,2.14-1.36,9,9,0,0,1,2.14-.19c.78.19,1.36.38,2,.58a2.94,2.94,0,0,1,1.55,1.17,6.77,6.77,0,0,1,1.17,1.75c.2.58.39,1.36.59,2.14a4.93,4.93,0,0,1-.39,2.33l11.47-1.56-1.55,3.31-10.9,1-1.36,2.92,8.56,3.89-1.17,2.73-19.25-8.95Zm9.72,1.16,1.56-3.5c.19-.58.39-1,.58-1.55a4.22,4.22,0,0,0,.2-1.56,1.77,1.77,0,0,0-.59-1.36,8.65,8.65,0,0,0-1.36-1.17,2.88,2.88,0,0,0-1.75-.39,1.77,1.77,0,0,0-1.36.59,6.71,6.71,0,0,0-1.17,1.16,6.15,6.15,0,0,0-.78,1.56l-1.55,3.5,6.22,2.72Zm.59-25.87,2.14-7.19a4.44,4.44,0,0,1,1.16-2.34c.59-.58,1-1.17,1.56-1.75a3.45,3.45,0,0,1,1.94-.78,4.8,4.8,0,0,1,2.34.2,4.32,4.32,0,0,1,2.53,1.94,5.78,5.78,0,0,1,.78,3.12,4.06,4.06,0,0,1,2.52-2.53,5.67,5.67,0,0,1,1.95-.39,8.16,8.16,0,0,1,2.14.19,4.71,4.71,0,0,1,2.33,1.36,7.88,7.88,0,0,1,1.36,2.14,11.22,11.22,0,0,1,.39,2.73,7.74,7.74,0,0,1-.58,2.91l-2.14,7-20.42-6.62Zm9.33-.19,1.17-3.89c.19-.58.19-1,.39-1.56a1.59,1.59,0,0,0-.2-1.36,3.93,3.93,0,0,0-.77-1.17,3.07,3.07,0,0,0-1.37-.77,3.21,3.21,0,0,0-2.33.19,3.32,3.32,0,0,0-1.75,2.14l-1.17,4.47Zm9.53,2.92,1.37-4.09c.19-.39.19-1,.39-1.36v-1.56a3.2,3.2,0,0,0-.78-1.36,4.21,4.21,0,0,0-1.56-1,3.42,3.42,0,0,0-3.11.39,5.52,5.52,0,0,0-1.95,2.92L474,325.57l7,1.95Zm-10.5-35.8.39-2.52,22.76-5.45-.59,3.31-5.64,1.16-1.75,10.12,4.87,2.92-.59,3.3-19.45-12.83ZM484.88,289l-10.3,2.34,8.94,5.64,1.36-8Zm-11.47-19.84v-3.89l17.89-11.48-17.7-.39v-2.91l21.4.58v3.7l-17.9,11.47,17.71.39v2.92Zm-.59-32.48-.19-2.92,21.4-1.95.19,2.92Zm14.59-20.43a4.66,4.66,0,0,0,1.37-2.33,5.69,5.69,0,0,0,0-2.53,2.08,2.08,0,0,0-.59-1.36,2.79,2.79,0,0,0-1-1.17,3.2,3.2,0,0,0-1.36-.78,2.19,2.19,0,0,0-1.56,0,2.83,2.83,0,0,0-1.75,1.17,7,7,0,0,0-.78,2.14c-.19.78-.19,1.75-.39,2.72s-.39,1.95-.58,2.72a5.42,5.42,0,0,1-1.56,2.34,6.53,6.53,0,0,1-3.11,1.36,3.37,3.37,0,0,1-1.94,0,4.29,4.29,0,0,1-2.14-1,6.15,6.15,0,0,1-1.95-1.95,7.54,7.54,0,0,1-1.17-3.11,20.48,20.48,0,0,1-.19-3.31,6.34,6.34,0,0,1,1.36-3.11l2.53,1.95a3.66,3.66,0,0,0-1,1.75,4.6,4.6,0,0,0,0,2.33,5.78,5.78,0,0,0,.78,1.95c.38.38.58.77,1,1.16a2.7,2.7,0,0,0,1.17.39h1.16a2.79,2.79,0,0,0,1.95-1.17,7.07,7.07,0,0,0,.78-2.13c.19-.78.19-1.76.38-2.73a6.84,6.84,0,0,1,.59-2.72,7.28,7.28,0,0,1,1.36-2.34,5.18,5.18,0,0,1,2.92-1.36,7.55,7.55,0,0,1,2.92,0,4.49,4.49,0,0,1,2.33,1.17,6.4,6.4,0,0,1,1.75,2.14,11.06,11.06,0,0,1,1,2.72,12.67,12.67,0,0,1,0,3.89,6.45,6.45,0,0,1-1.55,3.31l-2.73-2.14ZM466.6,190.38l2.14,6.61-2.53.78-5.06-16,2.53-.78,2.14,6.62,17.9-5.65,1,2.73-18.09,5.64Zm-11.48-22.76L454,165.29,469.71,148l1.36,3.12-3.89,4.08,4.28,9.34,5.64-.2,1.37,3.12-23.35.19Zm10.31-10.31L458,165.09l10.7-.39Z" transform="translate(-5 -9.67)"/><path class="cls-2" d="M458.62,56.74,62.38,453" transform="translate(-5 -9.67)"/><circle class="cls-3" cx="255.41" cy="245.29" r="176.82"/><path class="cls-4" d="M232.2,260.8c0-28.6,21.79-43.19,50.77-43.19,28,0,50.58,17.31,50.58,53.3H320.13c0-27.43-16.93-40.46-37.74-40.46S245,240,245,260.8c0,48.63,89.87,17.31,89.87,76.83,0,29.57-23,44.74-52.72,44.74-29.37,0-52.91-18.67-52.91-56h13c0,29.57,17.7,43.38,39.68,43.38s39.29-10.31,39.29-31.9c.59-46.49-89.09-15.76-89.09-77Z" transform="translate(-5 -9.67)"/><path class="cls-3" d="M238,228.51,253.6,254l5.06-9-13.81-22.95Z" transform="translate(-5 -9.67)"/><path class="cls-5" d="M285.5,230.45a51.3,51.3,0,0,0-5.64.2v45.71L197.77,141.94H185.71V301.26h13.42v-134l75.09,123.13c2.53.78,5.64,1.56,8.36,2.34,3.89,1,8,2.14,10.7,2.72v-63.8a56.42,56.42,0,0,0-7.78-1.17Zm0-13c2.72.19,5.84.58,7.78.78V143.11H279.86v74.31Z" transform="translate(-5 -9.67)"/></g></svg>