<svg id="Layer_1" data-name="Layer 1" xmlns="http://www.w3.org/2000/svg" viewBox="0 0 406.37 495"><defs><style>.cls-1{fill:#506072;}</style></defs><title>seta</title><g id="JYVH4M"><path class="cls-1" d="M228.88,418.16V29.31c0-5.71,1.14-12.58,4-17.72,4.57-8,15.44-10.87,24-8,9.14,2.86,14.86,10.87,14.86,20.59V417a21.7,21.7,0,0,0,1.15,3.44c14.86-16,29.73-31.45,44-46.89,32.59-34.31,65.19-69.2,97.78-103.51,9.72-10.29,22.3-11.43,31.45-2.85,9.72,8.57,9.15,21.72-.57,32.59-34.31,36-68.05,72-102.36,108.65-25.16,26.87-50.32,53.18-75.48,80.05-10.86,12-24,12-35.45,0L56.18,302.08a25.54,25.54,0,0,1-3.43-4c-8-9.72-8-22.3.57-30.87a21.1,21.1,0,0,1,30.31,1.14c16.58,17.15,32,34.31,48.61,51.46,29.73,32,60,63.48,90.35,95.5,1.14,1.14,1.71,2.86,2.85,4.57A19.24,19.24,0,0,0,228.88,418.16Z" transform="translate(-46.82 -2.5)"/></g></svg>