<svg xmlns="http://www.w3.org/2000/svg" id="Layer_1" data-name="Layer 1" viewBox="0 0 308.6 496.5"><style>path{fill:#000}@media (prefers-color-scheme:dark){path{fill:#fff}}</style><defs/><path d="M227.7 176.5c29-19.7 69-18.2 69-18.2 14.3.5 47.2 1.5 73.7 27 18.8 18.2 30.5 45.6 30.5 82.7h-27.7c0-56.5-34.9-83.3-77.7-83.3a98 98 0 00-53.9 14.7m-17.1 20c-6 12.1-6 24.3-6 27.8 0 0-.8 15.7 7.2 29.3 34.1 58.1 177.8 21 177.8 128.9 0 60.9-47.3 92.1-108.5 92.1-60.5 0-109-38.4-109-115.3h26.8c0 60.9 36.4 89.3 81.7 89.3s80.9-21.2 80.9-65.7c1.2-95.7-183.4-32.4-183.4-158.5h.2a86 86 0 0114.5-50.4l2.4-3.2" class="cls-1" transform="translate(-95.7 -1.8)"/><path d="M301.9 184.7a104.7 104.7 0 00-11.6.4v94.1L121.3 2.6H96.5v328H124V54.6l154.6 253.5c5.2 1.6 11.6 3.2 17.2 4.8 8 2.1 16.5 4.5 22 5.7V187.2a115.5 115.5 0 00-16-2.4zm0-26.7c5.6.3 12 1.1 16 1.6V4.9h-27.6v153z" class="cls-1" transform="translate(-95.7 -1.8)"/></svg>